<svg width="428" height="926" viewBox="0 0 428 926" fill="none" xmlns="http://www.w3.org/2000/svg">
<g clip-path="url(#clip0_1_3)">
<rect width="428" height="926" fill="url(#paint0_linear_1_3)"/>
<ellipse cx="133" cy="801" rx="115" ry="237" fill="white"/>
<ellipse cx="285" cy="875" rx="115" ry="237" fill="white"/>
<ellipse cx="298.5" cy="848" rx="101.5" ry="237" fill="white"/>
<ellipse cx="414" cy="1019" rx="115" ry="237" fill="white"/>
<ellipse cx="-18.5" cy="782.5" rx="116.5" ry="236.5" fill="white"/>
<path d="M-17 450C-15.9294 457.389 -12.4321 464.664 -9.69052 471.476C-6.6522 479.026 -5.07716 486.799 -3.11869 494.73C4.28272 524.7 11.3325 563.342 32.0205 586.189C44.29 599.738 63.824 599.669 79.5657 594.927C93.9089 590.608 100.821 583.168 110.413 571.97C131.188 547.716 164.71 547.023 180.088 578.561C185.852 590.382 189.02 603.452 193.03 616.033C197.66 630.557 201.642 650.961 216.903 656.024C225.052 658.727 237.685 660.063 246.141 657.653C275.248 649.358 284.019 596.098 318.566 606.999C351.651 617.438 362.169 664.882 371.14 696.162C377.688 718.993 381.386 746.382 393.27 766.811C402.261 782.268 413.54 785.801 429.08 788.584C443.611 791.186 452.003 781.182 461 769.922" stroke="white" stroke-width="30" stroke-linecap="round"/>
<path d="M230.386 647.061C226.453 645.094 222.312 643.207 218.836 640.475C215.1 637.539 211.882 633.862 208.709 630.348C204.883 626.111 201.356 621.681 198.155 616.949C196.221 614.09 193.684 610.069 191.967 607.049C186.411 597.278 192.69 608.008 188.141 599.439" stroke="white" stroke-width="3" stroke-linecap="round"/>
<path d="M206.831 615.441C206.898 616.111 207.336 616.778 207.535 617.418C207.907 618.616 208.207 619.845 208.687 621.003C209.285 622.442 209.869 623.882 210.487 625.313C210.911 626.294 211.31 627.285 211.724 628.271C212.601 630.359 214.022 632.233 215.351 634.046C218.072 637.756 221.538 640.495 225.016 643.441C228.17 646.112 232.212 646.762 236.09 647.751C239.702 648.672 243.342 649.441 247.028 650.005C251.216 650.646 255.355 650.773 259.587 650.773C261.888 650.773 264.318 650.844 265.974 648.981" stroke="white" stroke-width="3" stroke-linecap="round"/>
<path d="M221.169 641.556C222.399 642.424 224.136 642.874 225.528 643.398C227.905 644.293 230.446 644.685 232.896 645.34C235.925 646.149 239.173 646.545 242.291 645.98C244.636 645.555 247.375 644.59 249.517 643.846C252.613 642.77 259.067 640.371 262.176 639.195C262.251 639.167 266.639 637.839 267.382 636.948" stroke="white" stroke-width="3" stroke-linecap="round"/>
<path d="M213.104 635.923C213.677 636.092 214.242 636.439 214.782 636.677C216.054 637.239 217.349 637.751 218.552 638.455C220.171 639.403 221.685 640.524 223.288 641.499C224.868 642.46 226.723 642.839 228.48 643.348C231.725 644.288 235.382 644.201 238.728 644.038C242.153 643.872 245.482 642.874 248.727 641.819C251.363 640.963 253.642 639.044 255.818 637.381C257.763 635.896 259.767 634.402 261.472 632.638C262.904 631.156 264.014 629.439 265.056 627.674C265.373 627.137 265.749 626.115 266.358 625.81" stroke="white" stroke-width="3" stroke-linecap="round"/>
<path d="M244.098 643.144C245.458 642.871 246.866 642.457 248.161 641.701C248.984 641.22 249.746 640.496 250.515 639.854" stroke="white" stroke-width="3" stroke-linecap="round"/>
</g>
<defs>
<linearGradient id="paint0_linear_1_3" x1="0" y1="0" x2="428" y2="926" gradientUnits="userSpaceOnUse">
<stop stop-color="#FF833A"/>
<stop offset="0.279917" stop-color="#E65100"/>
<stop offset="0.515047" stop-color="#AC1900"/>
<stop offset="0.996705" stop-color="#4A1701"/>
</linearGradient>
<clipPath id="clip0_1_3">
<rect width="428" height="926" fill="white"/>
</clipPath>
</defs>
</svg>
